<svg width="1771" height="843" xmlns="http://www.w3.org/2000/svg" xmlns:xlink="http://www.w3.org/1999/xlink" overflow="hidden"><defs><clipPath id="clip0"><rect x="989" y="394" width="1771" height="843"/></clipPath></defs><g clip-path="url(#clip0)" transform="translate(-989 -394)"><path d="M1370.5 753.5C1463.29 753.5 1538.5 775.233 1538.5 802.037L1538.5 1006.66 1537.75 1008.8 1538.5 1012.58C1538.5 1060.03 1463.28 1098.5 1370.5 1098.5 1277.72 1098.5 1202.5 1060.03 1202.5 1012.58L1203.25 1008.8 1202.5 1006.66 1202.5 802.037C1202.5 775.233 1277.71 753.5 1370.5 753.5Z" stroke="#AFABAB" stroke-width="4.58333" stroke-miterlimit="8" fill="#C9C9C9" fill-rule="evenodd"/><path d="M1942 762.5C2035.07 762.5 2110.5 784.233 2110.5 811.037L2110.5 1015.66 2109.75 1017.8 2110.5 1021.58C2110.5 1069.03 2035.06 1107.5 1942 1107.5 1848.94 1107.5 1773.5 1069.03 1773.5 1021.58L1774.25 1017.8 1773.5 1015.66 1773.5 811.037C1773.5 784.233 1848.94 762.5 1942 762.5Z" stroke="#AFABAB" stroke-width="4.58333" stroke-miterlimit="8" fill="#C9C9C9" fill-rule="evenodd"/><path d="M2387.5 684.902C2387.5 650.438 2415.44 622.5 2449.9 622.5L2582.1 622.5C2616.56 622.5 2644.5 650.438 2644.5 684.902L2644.5 1013.1C2644.5 1047.56 2616.56 1075.5 2582.1 1075.5L2449.9 1075.5C2415.44 1075.5 2387.5 1047.56 2387.5 1013.1Z" stroke="#7C7C7C" stroke-width="4.58333" stroke-miterlimit="8" fill="#DBDBDB" fill-rule="evenodd"/><path d="M2403.68 755.763C2419.86 759.087 2436.04 792.327 2452.23 765.735 2471.1 734.711 2489.98 785.125 2508.86 774.461L2515.05 767.791 2515.05 767.445C2536.62 731.989 2558.2 802.9 2579.77 767.445 2601.35 731.989 2622.92 802.9 2644.5 767.445L2644.5 831.265C2622.92 866.721 2601.35 795.809 2579.77 831.265 2560.9 862.289 2542.02 811.875 2523.14 822.54L2516.95 829.21 2516.95 829.555C2495.38 865.011 2473.8 794.1 2452.23 829.555 2430.65 865.011 2409.08 794.1 2387.5 829.555L2387.5 765.735C2392.89 756.872 2398.29 754.655 2403.68 755.763Z" stroke="#A5A5A5" stroke-width="4.58333" stroke-miterlimit="8" fill="#F2F2F2" fill-rule="evenodd"/><text fill="#262626" font-family="Cambria Math,Cambria Math_MSFontService,sans-serif" font-weight="400" font-size="52" transform="translate(1212.67 1165)">𝑄<tspan font-size="38" x="32.1292" y="10">1</tspan></text><path d="M2.29167-8.67553e-06 2.29192 67.8308-2.29141 67.8308-2.29167 8.67553e-06ZM0.000256786 67.8308 13.7502 49.4974 0.000360892 95.3308-13.7498 49.4975Z" transform="matrix(1 0 0 -1 1373.5 1189.83)"/><path d="M1519.51 770.208 1771.25 771.067 1771.24 775.65 1519.49 774.792ZM1771.25 773.358 1752.96 759.546 1798.75 773.452 1752.87 787.046Z"/><path d="M1369.5 484.208 2689.11 484.209 2689.11 488.792 1369.5 488.792ZM2689.11 486.5 2670.78 472.75 2716.61 486.5 2670.78 500.25Z"/><path d="M2.29167-8.67553e-06 2.29192 67.8308-2.29141 67.8308-2.29167 8.67553e-06ZM0.000256786 67.8308 13.7502 49.4974 0.000360892 95.3308-13.7498 49.4975Z" transform="matrix(1 0 0 -1 1945.5 1198.83)"/><text fill="#262626" font-family="Cambria Math,Cambria Math_MSFontService,sans-serif" font-weight="400" font-size="52" transform="translate(1789.31 1167)">𝑄<tspan font-size="38" x="33.3208" y="10">2</tspan></text><path d="M1701.5 1196.5 1944.5 1196.66" stroke="#000000" stroke-width="4.58333" stroke-linejoin="round" stroke-miterlimit="10" fill="none" fill-rule="evenodd"/><path d="M0 0 1.15702 116.9" stroke="#000000" stroke-width="4.58333" stroke-linejoin="round" stroke-miterlimit="10" fill="none" fill-rule="evenodd" transform="matrix(-1 0 0 1 2515.66 1075.5)"/><path d="M0 0 235.29 0.000360892" stroke="#000000" stroke-width="4.58333" stroke-linejoin="round" stroke-miterlimit="10" fill="none" fill-rule="evenodd" transform="matrix(-1 0 0 1 1945.79 547.5)"/><path d="M1945.79 547.489 1946.06 600.24 1941.47 600.263 1941.21 547.512ZM1943.77 600.252 1957.42 581.85 1943.9 627.751 1929.92 581.988Z"/><path d="M1131.5 1189.5 1374.5 1189.66" stroke="#000000" stroke-width="4.58333" stroke-linejoin="round" stroke-miterlimit="10" fill="none" fill-rule="evenodd"/><path d="M1516.5 693.057 1516.5 998.943C1516.5 1039.02 1451.58 1071.5 1371.5 1071.5 1291.42 1071.5 1226.5 1039.02 1226.5 998.943L1226.5 693.057C1226.5 652.985 1291.42 620.5 1371.5 620.5 1451.58 620.5 1516.5 652.985 1516.5 693.057Z" stroke="#7C7C7C" stroke-width="4.58333" stroke-miterlimit="8" fill="#EDEDED" fill-rule="evenodd"/><path d="M1371.5 620.5 1372.14 920.655" stroke="#404040" stroke-width="4.58333" stroke-linejoin="round" stroke-miterlimit="10" fill="none" fill-rule="evenodd"/><path d="M1307.5 920C1307.5 913.096 1321.83 907.5 1339.5 907.5 1357.17 907.5 1371.5 913.096 1371.5 920 1371.5 926.904 1357.17 932.5 1339.5 932.5 1321.83 932.5 1307.5 926.904 1307.5 920Z" stroke="#404040" stroke-width="4.58333" stroke-miterlimit="8" fill="#AFABAB" fill-rule="evenodd"/><path d="M1372.5 920C1372.5 913.096 1386.83 907.5 1404.5 907.5 1422.17 907.5 1436.5 913.096 1436.5 920 1436.5 926.904 1422.17 932.5 1404.5 932.5 1386.83 932.5 1372.5 926.904 1372.5 920Z" stroke="#404040" stroke-width="4.58333" stroke-miterlimit="8" fill="#AFABAB" fill-rule="evenodd"/><path d="M1026.5 770.208 1201.36 770.208 1201.36 774.792 1026.5 774.792ZM1201.36 772.5 1183.03 758.75 1228.86 772.5 1183.03 786.25Z"/><text fill="#262626" font-family="Cambria Math,Cambria Math_MSFontService,sans-serif" font-weight="400" font-size="52" transform="translate(1032.65 750)">𝐹<tspan font-size="38" x="24.6812" y="11">10</tspan><tspan font-size="52" x="70.3541" y="0">,</tspan><tspan font-size="52" x="89.2604" y="0">𝑇</tspan><tspan font-size="38" x="113.46" y="11">10</tspan></text><path d="M2088.5 701.896 2088.5 1007.1C2088.5 1047.09 2023.81 1079.5 1944 1079.5 1864.2 1079.5 1799.5 1047.09 1799.5 1007.1L1799.5 701.896C1799.5 661.913 1864.2 629.5 1944 629.5 2023.81 629.5 2088.5 661.913 2088.5 701.896Z" stroke="#7C7C7C" stroke-width="4.58333" stroke-miterlimit="8" fill="#EDEDED" fill-rule="evenodd"/><path d="M1943.5 628.5 1943.5 919.759" stroke="#404040" stroke-width="4.58333" stroke-linejoin="round" stroke-miterlimit="10" fill="none" fill-rule="evenodd"/><path d="M1878.5 919C1878.5 912.096 1893.05 906.5 1911 906.5 1928.95 906.5 1943.5 912.096 1943.5 919 1943.5 925.904 1928.95 931.5 1911 931.5 1893.05 931.5 1878.5 925.904 1878.5 919Z" stroke="#404040" stroke-width="4.58333" stroke-miterlimit="8" fill="#AFABAB" fill-rule="evenodd"/><path d="M1943.5 919C1943.5 912.096 1958.05 906.5 1976 906.5 1993.95 906.5 2008.5 912.096 2008.5 919 2008.5 925.904 1993.95 931.5 1976 931.5 1958.05 931.5 1943.5 925.904 1943.5 919Z" stroke="#404040" stroke-width="4.58333" stroke-miterlimit="8" fill="#AFABAB" fill-rule="evenodd"/><path d="M2091.51 767.209 2362.83 768.073 2362.81 772.657 2091.49 771.792ZM2362.82 770.365 2344.53 756.557 2390.32 770.453 2344.44 784.056Z"/><text fill="#262626" font-family="Cambria Math,Cambria Math_MSFontService,sans-serif" font-weight="400" font-size="52" transform="translate(2554.1 1166)">𝐹<tspan font-size="38" x="25.873" y="11">3</tspan></text><path d="M2512.52 1190.21 2641.88 1191.15 2641.85 1195.73 2512.48 1194.79ZM2641.86 1193.44 2623.63 1179.56 2669.36 1193.64 2623.43 1207.06Z"/><path d="M2514.5 486.5 2515.66 622.841" stroke="#000000" stroke-width="4.58333" stroke-linejoin="round" stroke-miterlimit="10" fill="none" fill-rule="evenodd"/><path d="M1373.79 486.5 1373.79 593.498 1369.21 593.498 1369.21 486.5ZM1371.5 593.498 1385.25 575.165 1371.5 620.998 1357.75 575.165Z"/><text fill="#262626" font-family="Cambria Math,Cambria Math_MSFontService,sans-serif" font-weight="400" font-size="52" transform="translate(1303.52 565)">𝐹<tspan font-size="38" x="21.45" y="10">𝑟</tspan><tspan font-size="52" x="1310.77" y="-105">𝐹</tspan><tspan font-size="38" x="1336.65" y="-94">𝑃</tspan></text><text fill="#262626" font-family="Times New Roman,Times New Roman_MSFontService,sans-serif" font-weight="700" font-size="46" transform="matrix(1 0 0 1 1028.64 916)">CSTR 1<tspan font-size="46" x="568.061" y="0">CSTR </tspan><tspan font-size="46" x="701.551" y="0">2</tspan><tspan font-size="46" x="1130.02" y="0">Separator</tspan></text><path d="M2281.5 987.208 2345.45 987.209 2345.45 991.792 2281.5 991.792ZM2345.45 989.5 2327.12 975.75 2372.95 989.501 2327.12 1003.25Z"/><text fill="#262626" font-family="Cambria Math,Cambria Math_MSFontService,sans-serif" font-weight="400" font-size="52" transform="translate(2263.07 1178)">𝑄<tspan font-size="38" x="33.3208" y="11">3</tspan></text><path d="M0 0 0.000360892 147.377" stroke="#000000" stroke-width="4.58333" stroke-linejoin="round" stroke-miterlimit="10" fill="none" fill-rule="evenodd" transform="matrix(1 0 0 -1 2282.5 1134.88)"/><text fill="#262626" font-family="Cambria Math,Cambria Math_MSFontService,sans-serif" font-weight="400" font-size="52" transform="translate(1289.22 837)">𝑇<tspan font-size="38" x="24.2001" y="10">1</tspan><tspan font-size="52" x="577.704" y="0">𝑇</tspan><tspan font-size="38" x="603.096" y="10">2</tspan><tspan font-size="52" x="1203.55" y="79">𝑇</tspan><tspan font-size="38" x="1228.94" y="90">3</tspan></text><path d="M1261.41 975.746 1256.24 990.316 1265.55 990.316ZM1260.27 968.785 1267.18 968.785 1275.72 997.769C1276.1 999.063 1276.42 999.982 1276.68 1000.53 1276.94 1001.07 1277.28 1001.51 1277.69 1001.85 1278.1 1002.18 1278.68 1002.43 1279.42 1002.58L1279.42 1004.29 1265.14 1004.29 1265.14 1002.58C1266.04 1002.48 1266.7 1002.23 1267.13 1001.83 1267.56 1001.44 1267.78 1000.87 1267.78 1000.15 1267.78 999.615 1267.72 999.02 1267.6 998.365 1267.48 997.709 1267.28 996.881 1267 995.88L1266.3 993.344 1255.25 993.344 1254.4 995.802C1254.16 996.493 1253.96 997.161 1253.8 997.808 1253.65 998.455 1253.57 999.141 1253.57 999.865 1253.57 1001.56 1254.47 1002.46 1256.26 1002.58L1256.26 1004.29 1245.21 1004.29 1245.21 1002.58C1245.85 1002.51 1246.41 1002.29 1246.89 1001.91 1247.38 1001.53 1247.82 1001.01 1248.21 1000.36 1248.61 999.702 1249.03 998.761 1249.48 997.536Z" fill="#262626" fill-rule="evenodd"/><text fill="#000000" fill-opacity="0" font-family="Arial,Arial_MSFontService,sans-serif" font-size="35.5059" x="1245.21" y="999.853">𝐀</text><path d="M1326.07 978.464 1336.24 988.323 1336.24 989.98 1326.07 999.84 1324.54 998.416 1330.47 990.86 1297.78 990.86 1297.78 987.418 1330.47 987.418 1324.54 979.887Z" fill="#262626" fill-rule="evenodd"/><text fill="#000000" fill-opacity="0" font-family="Arial,Arial_MSFontService,sans-serif" font-size="21.376" x="1297.78" y="997.168">→</text><path d="M1367.23 987.469 1367.23 1001.19C1368.25 1001.24 1369.42 1001.26 1370.75 1001.26 1372.39 1001.26 1373.74 1001.06 1374.8 1000.65 1375.86 1000.25 1376.68 999.542 1377.27 998.533 1377.86 997.523 1378.15 996.139 1378.15 994.379 1378.15 992.895 1377.93 991.653 1377.48 990.653 1377.03 989.652 1376.29 988.871 1375.26 988.311 1374.24 987.75 1372.76 987.469 1370.83 987.469ZM1370.75 971.994C1369.54 971.994 1368.37 972.037 1367.23 972.123L1367.23 984.442 1370.67 984.442C1372.4 984.442 1373.75 984.191 1374.73 983.691 1375.72 983.191 1376.46 982.479 1376.97 981.556 1377.48 980.633 1377.74 979.361 1377.74 977.739 1377.74 975.755 1377.18 974.301 1376.07 973.378 1374.95 972.455 1373.18 971.994 1370.75 971.994ZM1356.44 968.966 1373.39 968.966C1375.15 968.966 1376.6 969.044 1377.75 969.199 1378.9 969.354 1379.94 969.6 1380.87 969.937 1381.8 970.273 1382.55 970.653 1383.11 971.075 1383.67 971.498 1384.14 971.985 1384.53 972.537 1384.92 973.089 1385.22 973.719 1385.44 974.427 1385.65 975.134 1385.76 975.919 1385.76 976.781 1385.76 980.681 1383.41 983.605 1378.72 985.554L1378.72 985.787C1381.14 986.546 1382.98 987.646 1384.24 989.087 1385.51 990.528 1386.15 992.257 1386.15 994.276 1386.15 996.001 1385.86 997.502 1385.28 998.779 1384.7 1000.06 1383.82 1001.1 1382.64 1001.92 1381.46 1002.74 1380.07 1003.34 1378.47 1003.72 1376.88 1004.1 1374.85 1004.29 1372.38 1004.29L1356.44 1004.29 1356.44 1002.58C1357.37 1002.34 1358 1002.07 1358.34 1001.75 1358.68 1001.44 1358.91 1001.03 1359.03 1000.53 1359.15 1000.02 1359.21 999.106 1359.21 997.795L1359.21 975.488C1359.21 974.176 1359.15 973.266 1359.04 972.757 1358.93 972.248 1358.7 971.839 1358.35 971.528 1358.01 971.218 1357.37 970.933 1356.44 970.674Z" fill="#262626" fill-rule="evenodd"/><text fill="#000000" fill-opacity="0" font-family="Arial,Arial_MSFontService,sans-serif" font-size="35.3247" x="1356.44" y="999.875">𝐁</text><path d="M1434.42 978.464 1444.59 988.323 1444.59 989.98 1434.42 999.84 1432.89 998.416 1438.82 990.86 1406.13 990.86 1406.13 987.418 1438.82 987.418 1432.89 979.887Z" fill="#262626" fill-rule="evenodd"/><text fill="#000000" fill-opacity="0" font-family="Arial,Arial_MSFontService,sans-serif" font-size="21.376" x="1406.13" y="997.168">→</text><path d="M1481.32 968.552C1483.07 968.552 1484.65 968.647 1486.06 968.837 1487.48 969.026 1488.95 969.337 1490.49 969.768L1490.49 977.273 1486.97 977.273C1486.55 975.324 1485.9 973.887 1485 972.964 1484.1 972.041 1482.93 971.58 1481.48 971.58 1478.75 971.58 1476.69 972.887 1475.29 975.5 1473.9 978.114 1473.2 981.992 1473.2 987.133 1473.2 991.912 1473.84 995.531 1475.11 997.989 1476.39 1000.45 1478.26 1001.68 1480.73 1001.68 1481.99 1001.68 1483.02 1001.47 1483.81 1001.04 1484.6 1000.62 1485.24 999.986 1485.71 999.141 1486.19 998.295 1486.6 997.105 1486.94 995.57L1490.49 995.57 1490.49 1003.41C1488.59 1003.86 1486.85 1004.19 1485.28 1004.39 1483.71 1004.6 1482.08 1004.7 1480.39 1004.7 1476.8 1004.7 1473.88 1004.06 1471.61 1002.76 1469.34 1001.47 1467.66 999.516 1466.59 996.902 1465.51 994.289 1464.97 990.98 1464.97 986.978 1464.97 983.234 1465.6 979.978 1466.87 977.208 1468.14 974.439 1470.01 972.304 1472.47 970.803 1474.94 969.302 1477.89 968.552 1481.32 968.552Z" fill="#262626" fill-rule="evenodd"/><text fill="#000000" fill-opacity="0" font-family="Arial,Arial_MSFontService,sans-serif" font-size="36.1528" x="1464.97" y="1000.19">𝐂</text><path d="M1833.87 983.84 1828.69 998.41 1838.01 998.41ZM1832.73 976.879 1839.64 976.879 1848.18 1005.86C1848.56 1007.16 1848.88 1008.08 1849.14 1008.62 1849.39 1009.16 1849.73 1009.6 1850.15 1009.94 1850.56 1010.28 1851.14 1010.52 1851.88 1010.68L1851.88 1012.38 1837.59 1012.38 1837.59 1010.68C1838.49 1010.57 1839.16 1010.32 1839.59 1009.93 1840.02 1009.53 1840.23 1008.97 1840.23 1008.24 1840.23 1007.71 1840.17 1007.11 1840.05 1006.46 1839.93 1005.8 1839.73 1004.97 1839.46 1003.97L1838.76 1001.44 1827.71 1001.44 1826.85 1003.9C1826.61 1004.59 1826.41 1005.25 1826.26 1005.9 1826.1 1006.55 1826.03 1007.23 1826.03 1007.96 1826.03 1009.65 1826.92 1010.56 1828.72 1010.68L1828.72 1012.38 1817.67 1012.38 1817.67 1010.68C1818.31 1010.61 1818.87 1010.38 1819.35 1010 1819.83 1009.62 1820.27 1009.11 1820.67 1008.45 1821.07 1007.8 1821.49 1006.85 1821.94 1005.63Z" fill="#262626" fill-rule="evenodd"/><text fill="#000000" fill-opacity="0" font-family="Arial,Arial_MSFontService,sans-serif" font-size="35.5059" x="1817.67" y="1007.95">𝐀</text><path d="M1898.52 986.557 1908.69 996.417 1908.69 998.073 1898.52 1007.93 1897 1006.51 1902.92 998.953 1870.24 998.953 1870.24 995.511 1902.92 995.511 1897 987.981Z" fill="#262626" fill-rule="evenodd"/><text fill="#000000" fill-opacity="0" font-family="Arial,Arial_MSFontService,sans-serif" font-size="21.376" x="1870.24" y="1005.26">→</text><path d="M1939.68 995.563 1939.68 1009.28C1940.7 1009.33 1941.88 1009.36 1943.2 1009.36 1944.84 1009.36 1946.19 1009.15 1947.25 1008.75 1948.32 1008.34 1949.14 1007.64 1949.73 1006.63 1950.31 1005.62 1950.61 1004.23 1950.61 1002.47 1950.61 1000.99 1950.38 999.747 1949.93 998.746 1949.48 997.746 1948.75 996.965 1947.72 996.404 1946.69 995.844 1945.21 995.563 1943.28 995.563ZM1943.2 980.088C1942 980.088 1940.82 980.131 1939.68 980.217L1939.68 992.535 1943.13 992.535C1944.85 992.535 1946.21 992.285 1947.19 991.785 1948.17 991.285 1948.92 990.573 1949.43 989.65 1949.94 988.727 1950.19 987.454 1950.19 985.833 1950.19 983.849 1949.64 982.395 1948.52 981.472 1947.41 980.549 1945.64 980.088 1943.2 980.088ZM1928.89 977.06 1945.84 977.06C1947.6 977.06 1949.06 977.137 1950.2 977.293 1951.35 977.448 1952.39 977.694 1953.32 978.03 1954.25 978.367 1955 978.746 1955.56 979.169 1956.12 979.592 1956.6 980.079 1956.98 980.631 1957.37 981.183 1957.68 981.813 1957.89 982.52 1958.11 983.228 1958.21 984.013 1958.21 984.875 1958.21 988.774 1955.87 991.699 1951.18 993.648L1951.18 993.881C1953.59 994.64 1955.43 995.74 1956.7 997.181 1957.97 998.621 1958.6 1000.35 1958.6 1002.37 1958.6 1004.09 1958.31 1005.6 1957.74 1006.87 1957.16 1008.15 1956.28 1009.2 1955.1 1010.02 1953.91 1010.84 1952.53 1011.44 1950.93 1011.82 1949.33 1012.19 1947.3 1012.38 1944.83 1012.38L1928.89 1012.38 1928.89 1010.68C1929.83 1010.43 1930.46 1010.16 1930.8 1009.85 1931.13 1009.54 1931.36 1009.13 1931.48 1008.62 1931.6 1008.11 1931.66 1007.2 1931.66 1005.89L1931.66 983.581C1931.66 982.27 1931.61 981.36 1931.49 980.851 1931.38 980.342 1931.15 979.932 1930.81 979.622 1930.46 979.311 1929.83 979.027 1928.89 978.768Z" fill="#262626" fill-rule="evenodd"/><text fill="#000000" fill-opacity="0" font-family="Arial,Arial_MSFontService,sans-serif" font-size="35.3247" x="1928.89" y="1007.97">𝐁</text><path d="M2006.87 986.557 2017.04 996.417 2017.04 998.073 2006.87 1007.93 2005.35 1006.51 2011.27 998.953 1978.59 998.953 1978.59 995.511 2011.27 995.511 2005.35 987.981Z" fill="#262626" fill-rule="evenodd"/><text fill="#000000" fill-opacity="0" font-family="Arial,Arial_MSFontService,sans-serif" font-size="21.376" x="1978.59" y="1005.26">→</text><path d="M2053.78 976.646C2055.52 976.646 2057.1 976.741 2058.52 976.93 2059.93 977.12 2061.41 977.431 2062.94 977.862L2062.94 985.367 2059.42 985.367C2059.01 983.417 2058.35 981.981 2057.45 981.058 2056.56 980.135 2055.38 979.674 2053.94 979.674 2051.21 979.674 2049.15 980.98 2047.75 983.594 2046.35 986.208 2045.65 990.085 2045.65 995.227 2045.65 1000.01 2046.29 1003.62 2047.57 1006.08 2048.85 1008.54 2050.72 1009.77 2053.18 1009.77 2054.44 1009.77 2055.47 1009.56 2056.26 1009.14 2057.06 1008.71 2057.69 1008.08 2058.17 1007.23 2058.64 1006.39 2059.05 1005.2 2059.4 1003.66L2062.94 1003.66 2062.94 1011.5C2061.04 1011.95 2059.31 1012.28 2057.74 1012.49 2056.17 1012.7 2054.54 1012.8 2052.85 1012.8 2049.26 1012.8 2046.33 1012.15 2044.06 1010.86 2041.79 1009.56 2040.12 1007.61 2039.04 1005 2037.96 1002.38 2037.42 999.074 2037.42 995.071 2037.42 991.328 2038.06 988.071 2039.33 985.302 2040.59 982.533 2042.46 980.398 2044.93 978.897 2047.4 977.396 2050.35 976.646 2053.78 976.646Z" fill="#262626" fill-rule="evenodd"/><text fill="#000000" fill-opacity="0" font-family="Arial,Arial_MSFontService,sans-serif" font-size="36.1528" x="2037.42" y="1008.28">𝐂</text><text fill="#262626" font-family="Cambria Math,Cambria Math_MSFontService,sans-serif" font-weight="400" font-size="52" transform="translate(1737.14 594)">𝐹<tspan font-size="38" x="25.8729" y="10">2</tspan><tspan font-size="38" x="47.6438" y="10">0</tspan><tspan font-size="52" x="71.5459" y="0">,</tspan><tspan font-size="52" x="90.4521" y="0">𝑇</tspan><tspan font-size="38" x="115.844" y="10">2</tspan><tspan font-size="38" x="137.615" y="10">0</tspan><tspan font-size="52" x="429.591" y="159">𝐹</tspan><tspan font-size="38" x="455.464" y="170">2</tspan><tspan font-size="52" x="479.366" y="159">,</tspan><tspan font-size="52" x="498.272" y="159">𝑇</tspan><tspan font-size="38" x="523.664" y="170">2</tspan><tspan font-size="52" x="-158.701" y="160">𝐹</tspan><tspan font-size="38" x="-134.02" y="170">1</tspan><tspan font-size="52" x="-110.118" y="160">,</tspan><tspan font-size="52" x="-91.2113" y="160">𝑇</tspan><tspan font-size="38" x="-67.0114" y="170">1</tspan></text></g></svg>